G04*
G04 #@! TF.GenerationSoftware,Altium Limited,Altium Designer,22.10.1 (41)*
G04*
G04 Layer_Physical_Order=1*
G04 Layer_Color=255*
%FSLAX44Y44*%
%MOMM*%
G71*
G04*
G04 #@! TF.SameCoordinates,1ED68049-6446-41C4-8790-5122A1232E00*
G04*
G04*
G04 #@! TF.FilePolarity,Positive*
G04*
G01*
G75*
%ADD12C,0.2540*%
%ADD13R,2.0000X6.0000*%
%ADD15R,3.9000X6.7600*%
%ADD16R,0.7000X6.7600*%
%ADD17R,1.4478X1.1176*%
%ADD18R,0.9652X0.6604*%
%ADD19R,0.3556X0.3302*%
%ADD21C,1.5240*%
%ADD22R,1.5240X1.5240*%
%ADD23C,2.5400*%
%ADD24C,0.5080*%
%ADD25C,0.7112*%
%ADD26R,0.5588X1.5748*%
%ADD27C,0.3810*%
G36*
X623570Y351790D02*
Y189230D01*
X610870Y176530D01*
X541020D01*
X529590Y187960D01*
Y344170D01*
X527050Y346710D01*
X539750Y359410D01*
X546100Y365760D01*
X609600D01*
X623570Y351790D01*
D02*
G37*
G36*
X349504Y166377D02*
Y165100D01*
X356870D01*
X364236D01*
Y166068D01*
X365506Y166577D01*
X473710Y53340D01*
Y21590D01*
X464820Y12700D01*
X452120D01*
X444500Y20320D01*
Y34290D01*
X441960Y36830D01*
X394970Y35560D01*
X393700Y33020D01*
X392401Y16067D01*
X387350Y12700D01*
X374650D01*
X369570Y17780D01*
Y31750D01*
X363220Y38100D01*
X303530D01*
X288983Y52647D01*
X289469Y53820D01*
X295730D01*
Y86360D01*
Y118900D01*
X287020D01*
Y134620D01*
X299720Y147320D01*
Y158369D01*
X300101D01*
Y162560D01*
X301371D01*
Y163830D01*
X305689D01*
Y166250D01*
X327005Y166754D01*
X327914Y165867D01*
Y165735D01*
X335280D01*
X342646D01*
Y167124D01*
X348595Y167264D01*
X349504Y166377D01*
D02*
G37*
G36*
X518160Y355600D02*
Y349649D01*
X510060D01*
Y319659D01*
X516100D01*
Y306959D01*
X510060D01*
Y276969D01*
X515340D01*
X515826Y275796D01*
X507637Y267607D01*
X508638Y265104D01*
X519430Y259748D01*
Y257320D01*
X512600D01*
Y227330D01*
X518640D01*
Y214630D01*
X512600D01*
Y184640D01*
X519430D01*
Y176530D01*
X504190Y161290D01*
X400050D01*
X383540Y177800D01*
Y200660D01*
X368300Y215900D01*
X255909Y217177D01*
X235585Y176530D01*
X231737Y168833D01*
X230784Y168148D01*
Y168148D01*
X230784Y168148D01*
X226720D01*
Y157734D01*
X225450D01*
Y156464D01*
X220116D01*
Y155987D01*
X196118Y154845D01*
X195199Y155721D01*
Y162052D01*
X186690D01*
Y153924D01*
X184150D01*
Y162052D01*
X175641D01*
Y153870D01*
X170718Y153635D01*
X169799Y154512D01*
Y161925D01*
X161290D01*
Y153797D01*
X158750D01*
Y161925D01*
X150241D01*
Y152660D01*
X143676Y152347D01*
X8890Y300990D01*
Y335280D01*
X34290Y360680D01*
X513080D01*
X518160Y355600D01*
D02*
G37*
%LPC*%
G36*
X600710Y347873D02*
Y344170D01*
X604412D01*
X603747Y345778D01*
X602318Y347207D01*
X600710Y347873D01*
D02*
G37*
G36*
X598170D02*
X596562Y347207D01*
X595133Y345778D01*
X594468Y344170D01*
X598170D01*
Y347873D01*
D02*
G37*
G36*
X604412Y341630D02*
X600710D01*
Y337928D01*
X602318Y338593D01*
X603747Y340022D01*
X604412Y341630D01*
D02*
G37*
G36*
X598170D02*
X594468D01*
X595133Y340022D01*
X596562Y338593D01*
X598170Y337928D01*
Y341630D01*
D02*
G37*
G36*
X600710Y336442D02*
Y332740D01*
X604412D01*
X603747Y334348D01*
X602318Y335777D01*
X600710Y336442D01*
D02*
G37*
G36*
X598170D02*
X596562Y335777D01*
X595133Y334348D01*
X594468Y332740D01*
X598170D01*
Y336442D01*
D02*
G37*
G36*
X604412Y330200D02*
X600710D01*
Y326497D01*
X602318Y327163D01*
X603747Y328592D01*
X604412Y330200D01*
D02*
G37*
G36*
X598170D02*
X594468D01*
X595133Y328592D01*
X596562Y327163D01*
X598170Y326497D01*
Y330200D01*
D02*
G37*
G36*
X600710Y325013D02*
Y321310D01*
X604412D01*
X603747Y322918D01*
X602318Y324347D01*
X600710Y325013D01*
D02*
G37*
G36*
X598170D02*
X596562Y324347D01*
X595133Y322918D01*
X594468Y321310D01*
X598170D01*
Y325013D01*
D02*
G37*
G36*
X604412Y318770D02*
X600710D01*
Y315068D01*
X602318Y315733D01*
X603747Y317162D01*
X604412Y318770D01*
D02*
G37*
G36*
X598170D02*
X594468D01*
X595133Y317162D01*
X596562Y315733D01*
X598170Y315068D01*
Y318770D01*
D02*
G37*
G36*
X600710Y313582D02*
Y309880D01*
X604412D01*
X603747Y311488D01*
X602318Y312917D01*
X600710Y313582D01*
D02*
G37*
G36*
X598170D02*
X596562Y312917D01*
X595133Y311488D01*
X594468Y309880D01*
X598170D01*
Y313582D01*
D02*
G37*
G36*
X604412Y307340D02*
X600710D01*
Y303638D01*
X602318Y304303D01*
X603747Y305732D01*
X604412Y307340D01*
D02*
G37*
G36*
X598170D02*
X594468D01*
X595133Y305732D01*
X596562Y304303D01*
X598170Y303638D01*
Y307340D01*
D02*
G37*
G36*
X600710Y302153D02*
Y298450D01*
X604412D01*
X603747Y300058D01*
X602318Y301487D01*
X600710Y302153D01*
D02*
G37*
G36*
X598170D02*
X596562Y301487D01*
X595133Y300058D01*
X594468Y298450D01*
X598170D01*
Y302153D01*
D02*
G37*
G36*
X604412Y295910D02*
X600710D01*
Y292208D01*
X602318Y292873D01*
X603747Y294302D01*
X604412Y295910D01*
D02*
G37*
G36*
X598170D02*
X594468D01*
X595133Y294302D01*
X596562Y292873D01*
X598170Y292208D01*
Y295910D01*
D02*
G37*
G36*
X600710Y290723D02*
Y287020D01*
X604412D01*
X603747Y288628D01*
X602318Y290057D01*
X600710Y290723D01*
D02*
G37*
G36*
X598170D02*
X596562Y290057D01*
X595133Y288628D01*
X594468Y287020D01*
X598170D01*
Y290723D01*
D02*
G37*
G36*
X604412Y284480D02*
X600710D01*
Y280777D01*
X602318Y281443D01*
X603747Y282872D01*
X604412Y284480D01*
D02*
G37*
G36*
X598170D02*
X594468D01*
X595133Y282872D01*
X596562Y281443D01*
X598170Y280777D01*
Y284480D01*
D02*
G37*
G36*
X600710Y253892D02*
Y250190D01*
X604412D01*
X603747Y251798D01*
X602318Y253227D01*
X600710Y253892D01*
D02*
G37*
G36*
X598170D02*
X596562Y253227D01*
X595133Y251798D01*
X594468Y250190D01*
X598170D01*
Y253892D01*
D02*
G37*
G36*
X604412Y247650D02*
X600710D01*
Y243948D01*
X602318Y244613D01*
X603747Y246042D01*
X604412Y247650D01*
D02*
G37*
G36*
X598170D02*
X594468D01*
X595133Y246042D01*
X596562Y244613D01*
X598170Y243948D01*
Y247650D01*
D02*
G37*
G36*
X600710Y242463D02*
Y238760D01*
X604412D01*
X603747Y240368D01*
X602318Y241797D01*
X600710Y242463D01*
D02*
G37*
G36*
X598170D02*
X596562Y241797D01*
X595133Y240368D01*
X594468Y238760D01*
X598170D01*
Y242463D01*
D02*
G37*
G36*
X604412Y236220D02*
X600710D01*
Y232518D01*
X602318Y233183D01*
X603747Y234612D01*
X604412Y236220D01*
D02*
G37*
G36*
X598170D02*
X594468D01*
X595133Y234612D01*
X596562Y233183D01*
X598170Y232518D01*
Y236220D01*
D02*
G37*
G36*
X600710Y231033D02*
Y227330D01*
X604412D01*
X603747Y228938D01*
X602318Y230367D01*
X600710Y231033D01*
D02*
G37*
G36*
X598170D02*
X596562Y230367D01*
X595133Y228938D01*
X594468Y227330D01*
X598170D01*
Y231033D01*
D02*
G37*
G36*
X604412Y224790D02*
X600710D01*
Y221087D01*
X602318Y221753D01*
X603747Y223182D01*
X604412Y224790D01*
D02*
G37*
G36*
X598170D02*
X594468D01*
X595133Y223182D01*
X596562Y221753D01*
X598170Y221087D01*
Y224790D01*
D02*
G37*
G36*
X600710Y219603D02*
Y215900D01*
X604412D01*
X603747Y217508D01*
X602318Y218937D01*
X600710Y219603D01*
D02*
G37*
G36*
X598170D02*
X596562Y218937D01*
X595133Y217508D01*
X594468Y215900D01*
X598170D01*
Y219603D01*
D02*
G37*
G36*
X604412Y213360D02*
X600710D01*
Y209657D01*
X602318Y210323D01*
X603747Y211752D01*
X604412Y213360D01*
D02*
G37*
G36*
X598170D02*
X594468D01*
X595133Y211752D01*
X596562Y210323D01*
X598170Y209657D01*
Y213360D01*
D02*
G37*
G36*
X600710Y208172D02*
Y204470D01*
X604412D01*
X603747Y206078D01*
X602318Y207507D01*
X600710Y208172D01*
D02*
G37*
G36*
X598170D02*
X596562Y207507D01*
X595133Y206078D01*
X594468Y204470D01*
X598170D01*
Y208172D01*
D02*
G37*
G36*
X604412Y201930D02*
X600710D01*
Y198228D01*
X602318Y198893D01*
X603747Y200322D01*
X604412Y201930D01*
D02*
G37*
G36*
X598170D02*
X594468D01*
X595133Y200322D01*
X596562Y198893D01*
X598170Y198228D01*
Y201930D01*
D02*
G37*
G36*
X600710Y196742D02*
Y193040D01*
X604412D01*
X603747Y194648D01*
X602318Y196077D01*
X600710Y196742D01*
D02*
G37*
G36*
X598170D02*
X596562Y196077D01*
X595133Y194648D01*
X594468Y193040D01*
X598170D01*
Y196742D01*
D02*
G37*
G36*
X604412Y190500D02*
X600710D01*
Y186798D01*
X602318Y187463D01*
X603747Y188892D01*
X604412Y190500D01*
D02*
G37*
G36*
X598170D02*
X594468D01*
X595133Y188892D01*
X596562Y187463D01*
X598170Y186798D01*
Y190500D01*
D02*
G37*
G36*
X342646Y163195D02*
X336550D01*
Y158623D01*
X342646D01*
Y163195D01*
D02*
G37*
G36*
X334010D02*
X327914D01*
Y158623D01*
X334010D01*
Y163195D01*
D02*
G37*
G36*
X305689Y161290D02*
X302641D01*
Y158369D01*
X305689D01*
Y161290D01*
D02*
G37*
G36*
X364236Y162560D02*
X358140D01*
Y157988D01*
X364236D01*
Y162560D01*
D02*
G37*
G36*
X355600D02*
X349504D01*
Y157988D01*
X355600D01*
Y162560D01*
D02*
G37*
G36*
X309540Y118900D02*
X298270D01*
Y87630D01*
X309540D01*
Y118900D01*
D02*
G37*
G36*
Y85090D02*
X298270D01*
Y53820D01*
X309540D01*
Y85090D01*
D02*
G37*
G36*
X458538Y35560D02*
X458470D01*
Y26670D01*
X467360D01*
Y26738D01*
X466668Y29322D01*
X465330Y31638D01*
X463438Y33530D01*
X461122Y34868D01*
X458538Y35560D01*
D02*
G37*
G36*
X455930D02*
X455862D01*
X453278Y34868D01*
X450962Y33530D01*
X449070Y31638D01*
X447732Y29322D01*
X447040Y26738D01*
Y26670D01*
X455930D01*
Y35560D01*
D02*
G37*
G36*
X382338D02*
X382270D01*
Y26670D01*
X391160D01*
Y26738D01*
X390468Y29322D01*
X389130Y31638D01*
X387238Y33530D01*
X384922Y34868D01*
X382338Y35560D01*
D02*
G37*
G36*
X379730D02*
X379662D01*
X377078Y34868D01*
X374762Y33530D01*
X372870Y31638D01*
X371532Y29322D01*
X370840Y26738D01*
Y26670D01*
X379730D01*
Y35560D01*
D02*
G37*
G36*
X467360Y24130D02*
X458470D01*
Y15240D01*
X458538D01*
X461122Y15932D01*
X463438Y17270D01*
X465330Y19162D01*
X466668Y21478D01*
X467360Y24062D01*
Y24130D01*
D02*
G37*
G36*
X455930D02*
X447040D01*
Y24062D01*
X447732Y21478D01*
X449070Y19162D01*
X450962Y17270D01*
X453278Y15932D01*
X455862Y15240D01*
X455930D01*
Y24130D01*
D02*
G37*
G36*
X391160D02*
X382270D01*
Y15240D01*
X382338D01*
X384922Y15932D01*
X387238Y17270D01*
X389130Y19162D01*
X390468Y21478D01*
X391160Y24062D01*
Y24130D01*
D02*
G37*
G36*
X379730D02*
X370840D01*
Y24062D01*
X371532Y21478D01*
X372870Y19162D01*
X374762Y17270D01*
X377078Y15932D01*
X379662Y15240D01*
X379730D01*
Y24130D01*
D02*
G37*
G36*
X30711Y321310D02*
X30480D01*
Y307340D01*
X44450D01*
Y307571D01*
X43864Y310515D01*
X42716Y313289D01*
X41048Y315785D01*
X38925Y317908D01*
X36429Y319576D01*
X33655Y320724D01*
X30711Y321310D01*
D02*
G37*
G36*
X27940D02*
X27709D01*
X24765Y320724D01*
X21991Y319576D01*
X19495Y317908D01*
X17372Y315785D01*
X15704Y313289D01*
X14556Y310515D01*
X13970Y307571D01*
Y307340D01*
X27940D01*
Y321310D01*
D02*
G37*
G36*
X44450Y304800D02*
X30480D01*
Y290830D01*
X30711D01*
X33655Y291416D01*
X36429Y292565D01*
X38925Y294232D01*
X41048Y296355D01*
X42716Y298851D01*
X43864Y301625D01*
X44450Y304569D01*
Y304800D01*
D02*
G37*
G36*
X27940D02*
X13970D01*
Y304569D01*
X14556Y301625D01*
X15704Y298851D01*
X17372Y296355D01*
X19495Y294232D01*
X21991Y292565D01*
X24765Y291416D01*
X27709Y290830D01*
X27940D01*
Y304800D01*
D02*
G37*
G36*
X224180Y168148D02*
X220116D01*
Y159004D01*
X224180D01*
Y168148D01*
D02*
G37*
%LPD*%
D12*
X187960Y106680D02*
X215646Y134366D01*
X225450D01*
X187960Y102870D02*
Y106680D01*
X188178Y100548D02*
Y102652D01*
X187960Y102870D02*
X188178Y102652D01*
X187960Y100330D02*
X188178Y100548D01*
X187960Y80010D02*
Y100330D01*
Y80010D02*
X220980Y46990D01*
X267970D01*
X270510Y49530D01*
Y137541D01*
X295021Y162052D02*
Y162179D01*
X270510Y137541D02*
X295021Y162052D01*
X295402Y162560D02*
X295529D01*
X295021Y162179D02*
X295402Y162560D01*
X295529D02*
Y171450D01*
X635000Y25400D02*
Y86360D01*
X671830Y123190D02*
Y370840D01*
X635000Y86360D02*
X671830Y123190D01*
X647700Y394970D02*
X671830Y370840D01*
X299720Y394970D02*
X647700D01*
X294640Y383540D02*
X641350D01*
X660400Y364490D01*
X187960Y490220D02*
X294640Y383540D01*
X660400Y129540D02*
Y364490D01*
X213360Y481330D02*
X299720Y394970D01*
X213360Y481330D02*
Y508000D01*
X187960Y490220D02*
Y508000D01*
X609600Y25400D02*
Y78740D01*
X660400Y129540D01*
X252857Y87503D02*
X254000Y86360D01*
X301371Y171450D02*
X301498D01*
X301244D02*
X301371D01*
X301498D02*
X305584Y175536D01*
Y179854D01*
X306070Y180340D01*
X244450Y157734D02*
Y162814D01*
X250974Y172234D02*
X251460Y172720D01*
X300863Y171831D02*
X301244Y171450D01*
D13*
X297000Y86360D02*
D03*
X254000D02*
D03*
D15*
X546100Y313309D02*
D03*
X548640Y220980D02*
D03*
D16*
X576100Y313309D02*
D03*
X516100D02*
D03*
X578640Y220980D02*
D03*
X518640D02*
D03*
D17*
X160020Y135763D02*
D03*
Y153797D02*
D03*
X208280Y105537D02*
D03*
Y87503D02*
D03*
X185420Y135890D02*
D03*
Y153924D02*
D03*
D18*
X356870Y177800D02*
D03*
Y163830D02*
D03*
X335280Y178435D02*
D03*
Y164465D02*
D03*
D19*
X301371Y171450D02*
D03*
X295529D02*
D03*
Y162560D02*
D03*
X301371D02*
D03*
D21*
X213360Y508000D02*
D03*
X238760D02*
D03*
X264160D02*
D03*
X289560D02*
D03*
X391160D02*
D03*
X416560D02*
D03*
X340360D02*
D03*
X365760D02*
D03*
X314960D02*
D03*
X482600D02*
D03*
X508000D02*
D03*
X533400D02*
D03*
X558800D02*
D03*
X609600D02*
D03*
X635000D02*
D03*
X584200D02*
D03*
X635000Y25400D02*
D03*
X609600D02*
D03*
X584200D02*
D03*
X558800D02*
D03*
X533400D02*
D03*
X304800D02*
D03*
X330200D02*
D03*
X355600D02*
D03*
X381000D02*
D03*
X431800D02*
D03*
X457200D02*
D03*
X406400D02*
D03*
D22*
X187960Y508000D02*
D03*
X457200D02*
D03*
X508000Y25400D02*
D03*
X279400D02*
D03*
D23*
X29210Y245110D02*
D03*
Y306070D02*
D03*
D24*
X251460Y172720D02*
D03*
X306070Y180340D02*
D03*
X599440Y237490D02*
D03*
Y226060D02*
D03*
Y214630D02*
D03*
Y191770D02*
D03*
Y203200D02*
D03*
Y248920D02*
D03*
Y285750D02*
D03*
Y297180D02*
D03*
Y308610D02*
D03*
Y320040D02*
D03*
Y331470D02*
D03*
Y342900D02*
D03*
D25*
X356870Y193040D02*
D03*
X335280D02*
D03*
X185420Y118110D02*
D03*
X160020Y120650D02*
D03*
D26*
X244450Y134366D02*
D03*
X234950D02*
D03*
X225450D02*
D03*
Y157734D02*
D03*
X234950D02*
D03*
X244450D02*
D03*
D27*
X208280Y87503D02*
X252857D01*
X244450Y162814D02*
X250974Y169338D01*
X356870Y177800D02*
Y193040D01*
X335280Y178435D02*
Y193040D01*
X250974Y169338D02*
Y172234D01*
X185420Y118110D02*
Y135890D01*
X160020Y120650D02*
Y135763D01*
X356553Y164147D02*
X356870Y163830D01*
X335280Y164465D02*
X335597Y164147D01*
X158877Y154940D02*
X160020Y153797D01*
X185357Y153861D02*
X185420Y153924D01*
X160020Y153797D02*
X160084Y153861D01*
X185420Y153924D02*
X185674Y153670D01*
X254000Y86360D02*
Y141244D01*
X248559Y146685D02*
X254000Y141244D01*
X238481Y148545D02*
X240341Y146685D01*
X238481Y148545D02*
Y149123D01*
X240341Y146685D02*
X248559D01*
X234950Y152654D02*
X238481Y149123D01*
X234950Y152654D02*
Y157734D01*
X208407Y105410D02*
X224790D01*
X208280Y105537D02*
X208407Y105410D01*
X243561Y133477D02*
X244450Y134366D01*
X243561Y124181D02*
Y133477D01*
X224790Y105410D02*
X243561Y124181D01*
X234950Y134366D02*
Y143818D01*
X232718Y146050D02*
X234950Y143818D01*
X227330Y146050D02*
X232718D01*
X224790Y148590D02*
X227330Y146050D01*
X224790Y157074D02*
X225450Y157734D01*
X224790Y148590D02*
Y157074D01*
M02*
