G04*
G04 #@! TF.GenerationSoftware,Altium Limited,Altium Designer,22.10.1 (41)*
G04*
G04 Layer_Color=16711935*
%FSLAX44Y44*%
%MOMM*%
G71*
G04*
G04 #@! TF.SameCoordinates,1ED68049-6446-41C4-8790-5122A1232E00*
G04*
G04*
G04 #@! TF.FilePolarity,Negative*
G04*
G01*
G75*
%ADD21C,1.5240*%
%ADD22R,1.5240X1.5240*%
%ADD23C,2.5400*%
%ADD24C,0.5080*%
%ADD25C,0.7112*%
D21*
X213360Y508000D02*
D03*
X238760D02*
D03*
X264160D02*
D03*
X289560D02*
D03*
X391160D02*
D03*
X416560D02*
D03*
X340360D02*
D03*
X365760D02*
D03*
X314960D02*
D03*
X482600D02*
D03*
X508000D02*
D03*
X533400D02*
D03*
X558800D02*
D03*
X609600D02*
D03*
X635000D02*
D03*
X584200D02*
D03*
X635000Y25400D02*
D03*
X609600D02*
D03*
X584200D02*
D03*
X558800D02*
D03*
X533400D02*
D03*
X304800D02*
D03*
X330200D02*
D03*
X355600D02*
D03*
X381000D02*
D03*
X431800D02*
D03*
X457200D02*
D03*
X406400D02*
D03*
D22*
X187960Y508000D02*
D03*
X457200D02*
D03*
X508000Y25400D02*
D03*
X279400D02*
D03*
D23*
X29210Y245110D02*
D03*
Y306070D02*
D03*
D24*
X251460Y172720D02*
D03*
X306070Y180340D02*
D03*
X599440Y237490D02*
D03*
Y226060D02*
D03*
Y214630D02*
D03*
Y191770D02*
D03*
Y203200D02*
D03*
Y248920D02*
D03*
Y285750D02*
D03*
Y297180D02*
D03*
Y308610D02*
D03*
Y320040D02*
D03*
Y331470D02*
D03*
Y342900D02*
D03*
D25*
X356870Y193040D02*
D03*
X335280D02*
D03*
X185420Y118110D02*
D03*
X160020Y120650D02*
D03*
M02*
