G04*
G04 #@! TF.GenerationSoftware,Altium Limited,Altium Designer,22.10.1 (41)*
G04*
G04 Layer_Color=8421504*
%FSLAX44Y44*%
%MOMM*%
G71*
G04*
G04 #@! TF.SameCoordinates,1ED68049-6446-41C4-8790-5122A1232E00*
G04*
G04*
G04 #@! TF.FilePolarity,Positive*
G04*
G01*
G75*
%ADD13R,2.0000X6.0000*%
%ADD14R,0.3556X1.3716*%
%ADD15R,3.9000X6.7600*%
%ADD16R,0.7000X6.7600*%
%ADD17R,1.4478X1.1176*%
%ADD18R,0.9652X0.6604*%
%ADD19R,0.3556X0.3302*%
D13*
X297000Y86360D02*
D03*
X254000D02*
D03*
D14*
X244450Y134366D02*
D03*
X234950D02*
D03*
X225450D02*
D03*
Y157734D02*
D03*
X234950D02*
D03*
X244450D02*
D03*
D15*
X546100Y313309D02*
D03*
X548640Y220980D02*
D03*
D16*
X576100Y313309D02*
D03*
X516100D02*
D03*
X578640Y220980D02*
D03*
X518640D02*
D03*
D17*
X160020Y135763D02*
D03*
Y153797D02*
D03*
X208280Y105537D02*
D03*
Y87503D02*
D03*
X185420Y135890D02*
D03*
Y153924D02*
D03*
D18*
X356870Y177800D02*
D03*
Y163830D02*
D03*
X335280Y178435D02*
D03*
Y164465D02*
D03*
D19*
X301371Y171450D02*
D03*
X295529D02*
D03*
Y162560D02*
D03*
X301371D02*
D03*
M02*
