G04*
G04 #@! TF.GenerationSoftware,Altium Limited,Altium Designer,22.10.1 (41)*
G04*
G04 Layer_Color=65535*
%FSLAX44Y44*%
%MOMM*%
G71*
G04*
G04 #@! TF.SameCoordinates,1ED68049-6446-41C4-8790-5122A1232E00*
G04*
G04*
G04 #@! TF.FilePolarity,Positive*
G04*
G01*
G75*
%ADD10C,0.1524*%
%ADD11C,0.4000*%
%ADD12C,0.2540*%
D10*
X247740Y147863D02*
G03*
X247740Y144237I2450J-1813D01*
G01*
X267327Y116360D02*
X283673D01*
X267327Y56360D02*
X283673D01*
X219710Y137287D02*
Y154813D01*
X250190Y137287D02*
Y154813D01*
D11*
X586600Y278309D02*
Y348309D01*
X589140Y185980D02*
Y255980D01*
D12*
X325000Y92541D02*
X325249Y77308D01*
X335404Y77474D01*
X340482Y77556D02*
X345560Y77639D01*
X343021Y77598D01*
X342772Y92831D01*
X340275Y90251D01*
X158327Y511808D02*
X154942D01*
X156634D01*
Y503344D01*
X154942Y501652D01*
X153249D01*
X151556Y503344D01*
X161713Y510116D02*
X163406Y511808D01*
X166791D01*
X168484Y510116D01*
Y508423D01*
X166791Y506730D01*
X165098D01*
X166791D01*
X168484Y505037D01*
Y503344D01*
X166791Y501652D01*
X163406D01*
X161713Y503344D01*
X455507Y491488D02*
X452122Y491488D01*
X453815Y491488D01*
X453814Y483024D01*
X452122Y481332D01*
X450429Y481332D01*
X448736Y483025D01*
X463971Y481331D02*
X463971Y491488D01*
X458893Y486410D01*
X465664Y486410D01*
X483490Y31762D02*
X480105Y31791D01*
X481797Y31777D01*
X481726Y23313D01*
X480019Y21635D01*
X478326Y21649D01*
X476648Y23356D01*
X493561Y21521D02*
X486790Y21578D01*
X493618Y28291D01*
X493632Y29984D01*
X491954Y31691D01*
X488568Y31720D01*
X486861Y30041D01*
X223170Y189321D02*
X223053Y180858D01*
X224722Y179142D01*
X228107Y179095D01*
X229823Y180765D01*
X229940Y189228D01*
X233185Y179025D02*
X236570Y178979D01*
X234878Y179002D01*
X235018Y189158D01*
X233302Y187488D01*
X628654Y322578D02*
Y307342D01*
X636272D01*
X638811Y309882D01*
Y320038D01*
X636272Y322578D01*
X628654D01*
X654046Y307342D02*
X643889D01*
X654046Y317499D01*
Y320038D01*
X651507Y322578D01*
X646428D01*
X643889Y320038D01*
X181723Y180944D02*
X180470Y179657D01*
X180505Y177118D01*
X181791Y175866D01*
X186869Y175935D01*
X188121Y177222D01*
X188087Y179760D01*
X186800Y181013D01*
X188036Y183569D02*
X188001Y186108D01*
X188018Y184838D01*
X182941Y184770D01*
X182958Y183500D01*
X187950Y189916D02*
X182872Y189848D01*
X182820Y193656D01*
X184073Y194943D01*
X187881Y194994D01*
X187778Y202611D02*
X187847Y197533D01*
X182700Y202542D01*
X181431Y202525D01*
X180179Y201238D01*
X180213Y198700D01*
X181500Y197447D01*
X354224Y211482D02*
X352943Y210224D01*
X352920Y207685D01*
X354179Y206404D01*
X359257Y206359D01*
X360538Y207617D01*
X360560Y210156D01*
X359302Y211437D01*
X360605Y215234D02*
X360628Y217773D01*
X359370Y219054D01*
X356831Y219077D01*
X355550Y217818D01*
X355527Y215279D01*
X356786Y213999D01*
X359325Y213976D01*
X360605Y215234D01*
X355584Y221627D02*
X359392Y221593D01*
X360673Y222851D01*
X360707Y226660D01*
X355629Y226705D01*
X354393Y230525D02*
X355662Y230514D01*
X355651Y229244D01*
X355674Y231783D01*
X355662Y230514D01*
X359471Y230480D01*
X360752Y231738D01*
X360831Y240625D02*
X360786Y235547D01*
X355753Y240670D01*
X354483Y240681D01*
X353202Y239423D01*
X353180Y236884D01*
X354438Y235603D01*
X282605Y208193D02*
X282554Y215810D01*
X286363Y215835D01*
X287641Y214574D01*
X287658Y212035D01*
X286397Y210757D01*
X282588Y210732D01*
X285127Y210749D02*
X287683Y208227D01*
X291492Y208252D02*
X291450Y214600D01*
X291467Y212061D01*
X290197Y212052D01*
X292736Y212069D01*
X291467Y212061D01*
X291450Y214600D01*
X292711Y215878D01*
X296520Y215903D02*
X296570Y208286D01*
X300379Y208311D01*
X301640Y209589D01*
X301632Y210858D01*
X301623Y212128D01*
X300345Y213389D01*
X296536Y213364D01*
X304137Y215954D02*
X304187Y208336D01*
X307996Y208361D01*
X309257Y209639D01*
X309249Y210909D01*
X309240Y212178D01*
X307962Y213440D01*
X304154Y213414D01*
X177801Y86362D02*
X176531Y85093D01*
Y82554D01*
X177801Y81284D01*
X182879D01*
X184149Y82554D01*
Y85093D01*
X182879Y86362D01*
X176531Y88902D02*
X184149D01*
Y92710D01*
X182879Y93980D01*
X181610D01*
X180340D01*
X179070Y92710D01*
Y88902D01*
X184149Y96519D02*
Y100328D01*
X182879Y101597D01*
X181610Y100328D01*
Y97789D01*
X180340Y96519D01*
X179070Y97789D01*
Y101597D01*
X177801Y105406D02*
X179070D01*
Y104137D01*
Y106676D01*
Y105406D01*
X182879D01*
X184149Y106676D01*
X155010Y178412D02*
X153753Y177130D01*
X153779Y174591D01*
X155061Y173334D01*
X160139Y173385D01*
X161396Y174667D01*
X161371Y177206D01*
X160088Y178463D01*
X161333Y181014D02*
X161308Y183554D01*
X161320Y182284D01*
X156242Y182234D01*
X156255Y180964D01*
X161270Y187362D02*
X156192Y187312D01*
X156154Y191120D01*
X157411Y192402D01*
X161219Y192440D01*
X161194Y194979D02*
X161169Y197518D01*
X161181Y196249D01*
X153564Y196173D01*
X154846Y194916D01*
X332361Y211555D02*
X331047Y210331D01*
X330958Y207793D01*
X332182Y206480D01*
X337257Y206300D01*
X338570Y207524D01*
X338660Y210062D01*
X337436Y211376D01*
X338840Y215137D02*
X338929Y217675D01*
X337705Y218988D01*
X335168Y219078D01*
X333854Y217854D01*
X333764Y215317D01*
X334988Y214003D01*
X337526Y213913D01*
X338840Y215137D01*
X333989Y221660D02*
X337795Y221526D01*
X339109Y222750D01*
X339243Y226556D01*
X334168Y226736D01*
X333034Y230587D02*
X334303Y230542D01*
X334258Y229273D01*
X334348Y231811D01*
X334303Y230542D01*
X338109Y230407D01*
X339423Y231631D01*
X339557Y235438D02*
X339647Y237975D01*
X339602Y236707D01*
X331990Y236976D01*
X333214Y235662D01*
X631193Y228598D02*
Y213363D01*
X638811D01*
X641350Y215902D01*
Y226058D01*
X638811Y228598D01*
X631193D01*
X646428Y213363D02*
X651507D01*
X648968D01*
Y228598D01*
X646428Y226058D01*
X255270Y31748D02*
X251885Y31748D01*
X253577Y31748D01*
X253577Y23284D01*
X251884Y21592D01*
X250191Y21592D01*
X248499Y23285D01*
X258655Y21591D02*
X262041Y21591D01*
X260348Y21591D01*
X260349Y31748D01*
X258656Y30055D01*
X283951Y192732D02*
X283755Y200347D01*
X287562Y200445D01*
X288864Y199209D01*
X288930Y196670D01*
X287693Y195368D01*
X283886Y195271D01*
X286424Y195336D02*
X289028Y192863D01*
X292835Y192961D02*
X292672Y199307D01*
X292737Y196768D01*
X291468Y196736D01*
X294006Y196801D01*
X292737Y196768D01*
X292672Y199307D01*
X293908Y200609D01*
X297716Y200707D02*
X297912Y193092D01*
X301719Y193190D01*
X302956Y194491D01*
X302923Y195761D01*
X302890Y197030D01*
X301589Y198266D01*
X297781Y198168D01*
X306633Y199666D02*
X306665Y198397D01*
X305396Y198364D01*
X307934Y198430D01*
X306665Y198397D01*
X306763Y194589D01*
X308065Y193353D01*
X64767Y245106D02*
X62228Y247645D01*
X57149D01*
X54610Y245106D01*
Y234949D01*
X57149Y232410D01*
X62228D01*
X64767Y234949D01*
Y240028D01*
X59688D01*
X69845Y232410D02*
Y247645D01*
X80002Y232410D01*
Y247645D01*
X85080D02*
Y232410D01*
X92698D01*
X95237Y234949D01*
Y245106D01*
X92698Y247645D01*
X85080D01*
X54610Y294640D02*
Y309875D01*
X62228D01*
X64767Y307336D01*
Y302257D01*
X62228Y299718D01*
X54610D01*
X69845Y309875D02*
Y294640D01*
X74923Y299718D01*
X80002Y294640D01*
Y309875D01*
X85080Y294640D02*
Y309875D01*
X92698D01*
X95237Y307336D01*
Y302257D01*
X92698Y299718D01*
X85080D01*
X90159D02*
X95237Y294640D01*
M02*
