G04*
G04 #@! TF.GenerationSoftware,Altium Limited,Altium Designer,22.10.1 (41)*
G04*
G04 Layer_Physical_Order=2*
G04 Layer_Color=16711680*
%FSLAX44Y44*%
%MOMM*%
G71*
G04*
G04 #@! TF.SameCoordinates,1FFB8BF8-2B07-4287-B8AF-9A6C265E6988*
G04*
G04*
G04 #@! TF.FilePolarity,Positive*
G04*
G01*
G75*
%ADD32C,1.0160*%
%ADD33C,1.5240*%
%ADD34C,0.5000*%
%ADD35C,1.2700*%
G36*
X1003250Y11480D02*
X762050D01*
Y227280D01*
X1003250D01*
Y11480D01*
D02*
G37*
%LPC*%
G36*
X920818Y223520D02*
X920750D01*
Y214630D01*
X929640D01*
Y214698D01*
X928948Y217282D01*
X927610Y219598D01*
X925718Y221490D01*
X923402Y222828D01*
X920818Y223520D01*
D02*
G37*
G36*
X918210D02*
X918142D01*
X915558Y222828D01*
X913242Y221490D01*
X911350Y219598D01*
X910012Y217282D01*
X909320Y214698D01*
Y214630D01*
X918210D01*
Y223520D01*
D02*
G37*
G36*
X883820D02*
X881480D01*
X879219Y222914D01*
X877191Y221744D01*
X875536Y220089D01*
X874366Y218061D01*
X873760Y215800D01*
Y213460D01*
X874366Y211199D01*
X875536Y209171D01*
X877191Y207516D01*
X879219Y206346D01*
X881480Y205740D01*
X883820D01*
X886081Y206346D01*
X888109Y207516D01*
X889764Y209171D01*
X890934Y211199D01*
X891540Y213460D01*
Y215800D01*
X890934Y218061D01*
X889764Y220089D01*
X888109Y221744D01*
X886081Y222914D01*
X883820Y223520D01*
D02*
G37*
G36*
X929640Y212090D02*
X920750D01*
Y203200D01*
X920818D01*
X923402Y203892D01*
X925718Y205230D01*
X927610Y207122D01*
X928948Y209438D01*
X929640Y212022D01*
Y212090D01*
D02*
G37*
G36*
X918210D02*
X909320D01*
Y212022D01*
X910012Y209438D01*
X911350Y207122D01*
X913242Y205230D01*
X915558Y203892D01*
X918142Y203200D01*
X918210D01*
Y212090D01*
D02*
G37*
G36*
X985520Y223608D02*
X982868Y223258D01*
X980396Y222235D01*
X978274Y220606D01*
X976645Y218484D01*
X975621Y216012D01*
X975272Y213360D01*
X975621Y210708D01*
X976645Y208236D01*
X978274Y206114D01*
X980396Y204485D01*
X982868Y203461D01*
X985520Y203112D01*
X988172Y203461D01*
X990644Y204485D01*
X992766Y206114D01*
X994395Y208236D01*
X995418Y210708D01*
X995768Y213360D01*
X995418Y216012D01*
X994395Y218484D01*
X992766Y220606D01*
X990644Y222235D01*
X988172Y223258D01*
X985520Y223608D01*
D02*
G37*
G36*
X946150Y165073D02*
Y157480D01*
X953743D01*
X953164Y159641D01*
X951994Y161669D01*
X950339Y163324D01*
X948311Y164494D01*
X946150Y165073D01*
D02*
G37*
G36*
X943610D02*
X941449Y164494D01*
X939421Y163324D01*
X937766Y161669D01*
X936596Y159641D01*
X936017Y157480D01*
X943610D01*
Y165073D01*
D02*
G37*
G36*
X953743Y154940D02*
X946150D01*
Y147347D01*
X948311Y147926D01*
X950339Y149096D01*
X951994Y150751D01*
X953164Y152779D01*
X953743Y154940D01*
D02*
G37*
G36*
X943610D02*
X936017D01*
X936596Y152779D01*
X937766Y150751D01*
X939421Y149096D01*
X941449Y147926D01*
X943610Y147347D01*
Y154940D01*
D02*
G37*
G36*
X805180Y154913D02*
Y147320D01*
X812773D01*
X812194Y149481D01*
X811024Y151509D01*
X809369Y153164D01*
X807341Y154334D01*
X805180Y154913D01*
D02*
G37*
G36*
X802640D02*
X800479Y154334D01*
X798451Y153164D01*
X796796Y151509D01*
X795626Y149481D01*
X795047Y147320D01*
X802640D01*
Y154913D01*
D02*
G37*
G36*
X812773Y144780D02*
X805180D01*
Y137187D01*
X807341Y137766D01*
X809369Y138936D01*
X811024Y140591D01*
X812194Y142619D01*
X812773Y144780D01*
D02*
G37*
G36*
X802640D02*
X795047D01*
X795626Y142619D01*
X796796Y140591D01*
X798451Y138936D01*
X800479Y137766D01*
X802640Y137187D01*
Y144780D01*
D02*
G37*
G36*
X911860Y124433D02*
Y116840D01*
X919453D01*
X918874Y119001D01*
X917704Y121029D01*
X916049Y122684D01*
X914021Y123854D01*
X911860Y124433D01*
D02*
G37*
G36*
X909320D02*
X907159Y123854D01*
X905131Y122684D01*
X903476Y121029D01*
X902306Y119001D01*
X901727Y116840D01*
X909320D01*
Y124433D01*
D02*
G37*
G36*
X854900Y114149D02*
X853315Y113493D01*
X852170Y112348D01*
X851025Y113493D01*
X849440Y114149D01*
Y109220D01*
Y104291D01*
X851025Y104947D01*
X852170Y106092D01*
X853315Y104947D01*
X854900Y104291D01*
Y109220D01*
Y114149D01*
D02*
G37*
G36*
X857440D02*
Y110490D01*
X861099D01*
X860443Y112075D01*
X859025Y113493D01*
X857440Y114149D01*
D02*
G37*
G36*
X846900D02*
X845315Y113493D01*
X843897Y112075D01*
X843241Y110490D01*
X846900D01*
Y114149D01*
D02*
G37*
G36*
X919453Y114300D02*
X911860D01*
Y106707D01*
X914021Y107286D01*
X916049Y108456D01*
X917704Y110111D01*
X918874Y112139D01*
X919453Y114300D01*
D02*
G37*
G36*
X909320D02*
X901727D01*
X902306Y112139D01*
X903476Y110111D01*
X905131Y108456D01*
X907159Y107286D01*
X909320Y106707D01*
Y114300D01*
D02*
G37*
G36*
X861099Y107950D02*
X857440D01*
Y104291D01*
X859025Y104947D01*
X860443Y106365D01*
X861099Y107950D01*
D02*
G37*
G36*
X846900D02*
X843241D01*
X843897Y106365D01*
X845315Y104947D01*
X846900Y104291D01*
Y107950D01*
D02*
G37*
G36*
X941070Y86333D02*
Y78740D01*
X948663D01*
X948084Y80901D01*
X946914Y82929D01*
X945259Y84584D01*
X943231Y85754D01*
X941070Y86333D01*
D02*
G37*
G36*
X938530D02*
X936369Y85754D01*
X934341Y84584D01*
X932686Y82929D01*
X931516Y80901D01*
X930937Y78740D01*
X938530D01*
Y86333D01*
D02*
G37*
G36*
X948663Y76200D02*
X941070D01*
Y68607D01*
X943231Y69186D01*
X945259Y70356D01*
X946914Y72011D01*
X948084Y74039D01*
X948663Y76200D01*
D02*
G37*
G36*
X938530D02*
X930937D01*
X931516Y74039D01*
X932686Y72011D01*
X934341Y70356D01*
X936369Y69186D01*
X938530Y68607D01*
Y76200D01*
D02*
G37*
G36*
X941070Y54583D02*
Y46990D01*
X948663D01*
X948084Y49151D01*
X946914Y51179D01*
X945259Y52834D01*
X943231Y54004D01*
X941070Y54583D01*
D02*
G37*
G36*
X938530D02*
X936369Y54004D01*
X934341Y52834D01*
X932686Y51179D01*
X931516Y49151D01*
X930937Y46990D01*
X938530D01*
Y54583D01*
D02*
G37*
G36*
X948663Y44450D02*
X941070D01*
Y36857D01*
X943231Y37436D01*
X945259Y38606D01*
X946914Y40261D01*
X948084Y42289D01*
X948663Y44450D01*
D02*
G37*
G36*
X938530D02*
X930937D01*
X931516Y42289D01*
X932686Y40261D01*
X934341Y38606D01*
X936369Y37436D01*
X938530Y36857D01*
Y44450D01*
D02*
G37*
G36*
X825568Y36830D02*
X825500D01*
Y27940D01*
X834390D01*
Y28008D01*
X833698Y30592D01*
X832360Y32908D01*
X830468Y34800D01*
X828152Y36138D01*
X825568Y36830D01*
D02*
G37*
G36*
X822960D02*
X822892D01*
X820308Y36138D01*
X817992Y34800D01*
X816100Y32908D01*
X814762Y30592D01*
X814070Y28008D01*
Y27940D01*
X822960D01*
Y36830D01*
D02*
G37*
G36*
X853340Y35560D02*
X851000D01*
X848739Y34954D01*
X846711Y33784D01*
X845056Y32129D01*
X843886Y30101D01*
X843280Y27840D01*
Y25500D01*
X843886Y23239D01*
X845056Y21211D01*
X846711Y19556D01*
X848739Y18386D01*
X851000Y17780D01*
X853340D01*
X855601Y18386D01*
X857629Y19556D01*
X859284Y21211D01*
X860454Y23239D01*
X861060Y25500D01*
Y27840D01*
X860454Y30101D01*
X859284Y32129D01*
X857629Y33784D01*
X855601Y34954D01*
X853340Y35560D01*
D02*
G37*
G36*
X834390Y25400D02*
X825500D01*
Y16510D01*
X825568D01*
X828152Y17202D01*
X830468Y18540D01*
X832360Y20432D01*
X833698Y22748D01*
X834390Y25332D01*
Y25400D01*
D02*
G37*
G36*
X822960D02*
X814070D01*
Y25332D01*
X814762Y22748D01*
X816100Y20432D01*
X817992Y18540D01*
X820308Y17202D01*
X822892Y16510D01*
X822960D01*
Y25400D01*
D02*
G37*
G36*
X985520Y34378D02*
X982868Y34028D01*
X980396Y33005D01*
X978274Y31376D01*
X976645Y29254D01*
X975621Y26782D01*
X975272Y24130D01*
X975621Y21478D01*
X976645Y19006D01*
X978274Y16884D01*
X980396Y15255D01*
X982868Y14231D01*
X985520Y13882D01*
X988172Y14231D01*
X990644Y15255D01*
X992766Y16884D01*
X994395Y19006D01*
X995418Y21478D01*
X995768Y24130D01*
X995418Y26782D01*
X994395Y29254D01*
X992766Y31376D01*
X990644Y33005D01*
X988172Y34028D01*
X985520Y34378D01*
D02*
G37*
G36*
X779780D02*
X777128Y34028D01*
X774656Y33005D01*
X772534Y31376D01*
X770905Y29254D01*
X769882Y26782D01*
X769532Y24130D01*
X769882Y21478D01*
X770905Y19006D01*
X772534Y16884D01*
X774656Y15255D01*
X777128Y14231D01*
X779780Y13882D01*
X782432Y14231D01*
X784904Y15255D01*
X787026Y16884D01*
X788655Y19006D01*
X789678Y21478D01*
X790028Y24130D01*
X789678Y26782D01*
X788655Y29254D01*
X787026Y31376D01*
X784904Y33005D01*
X782432Y34028D01*
X779780Y34378D01*
D02*
G37*
%LPD*%
D32*
X985520Y213360D02*
D03*
Y24130D02*
D03*
X779780D02*
D03*
D33*
X824230Y26670D02*
D03*
X852170D02*
D03*
X919480Y213360D02*
D03*
X882650Y214630D02*
D03*
D34*
X848170Y109220D02*
D03*
X856170D02*
D03*
D35*
X910590Y115570D02*
D03*
X939800Y77470D02*
D03*
X944880Y156210D02*
D03*
X939800Y45720D02*
D03*
X803910Y146050D02*
D03*
M02*
