G04*
G04 #@! TF.GenerationSoftware,Altium Limited,Altium Designer,22.10.1 (41)*
G04*
G04 Layer_Color=128*
%FSLAX44Y44*%
%MOMM*%
G71*
G04*
G04 #@! TF.SameCoordinates,1FFB8BF8-2B07-4287-B8AF-9A6C265E6988*
G04*
G04*
G04 #@! TF.FilePolarity,Positive*
G04*
G01*
G75*
%ADD36C,0.0508*%
D36*
X820420Y26670D02*
X828040D01*
X824230Y22860D02*
Y30480D01*
X848360Y26670D02*
X855980D01*
X852170Y22860D02*
Y30480D01*
X915670Y213360D02*
X923290D01*
X919480Y209550D02*
Y217170D01*
X878840Y214630D02*
X886460D01*
X882650Y210820D02*
Y218440D01*
X847170Y109220D02*
X849170D01*
X848170Y108220D02*
Y110220D01*
X855170Y109220D02*
X857170D01*
X856170Y108220D02*
Y110220D01*
X907034Y115570D02*
X914146D01*
X910590Y112014D02*
Y119126D01*
X936244Y77470D02*
X943356D01*
X939800Y73914D02*
Y81026D01*
X941324Y156210D02*
X948436D01*
X944880Y152654D02*
Y159766D01*
X936244Y45720D02*
X943356D01*
X939800Y42164D02*
Y49276D01*
X800354Y146050D02*
X807466D01*
X803910Y142494D02*
Y149606D01*
M02*
