G04*
G04 #@! TF.GenerationSoftware,Altium Limited,Altium Designer,22.10.1 (41)*
G04*
G04 Layer_Color=65535*
%FSLAX44Y44*%
%MOMM*%
G71*
G04*
G04 #@! TF.SameCoordinates,1FFB8BF8-2B07-4287-B8AF-9A6C265E6988*
G04*
G04*
G04 #@! TF.FilePolarity,Positive*
G04*
G01*
G75*
%ADD10C,0.2500*%
%ADD11C,0.2000*%
%ADD12C,0.1700*%
%ADD13C,0.1778*%
D10*
X939900Y45060D02*
G03*
X939900Y45060I-1250J0D01*
G01*
D11*
X912800Y39610D02*
X916000D01*
X912800Y69610D02*
X916000D01*
X853060Y154800D02*
X869060D01*
X853060Y137300D02*
X869060D01*
X790879Y163619D02*
Y204681D01*
X816941Y163619D02*
Y204681D01*
X948100Y58850D02*
Y80850D01*
X969677Y58797D02*
Y80797D01*
D12*
X863670Y98470D02*
Y100220D01*
Y118220D02*
Y119970D01*
X840670Y118220D02*
Y119970D01*
Y98470D02*
Y104970D01*
D13*
X831429Y155575D02*
X831427Y149227D01*
X835659Y149226D01*
X837775Y149225D02*
X839891Y149225D01*
X838833Y149225D01*
X838835Y155573D01*
X837777Y154515D01*
X822714Y50227D02*
X822787Y56575D01*
X825961Y56538D01*
X827006Y55468D01*
X826982Y53352D01*
X825912Y52306D01*
X822738Y52343D01*
X824854Y52319D02*
X826946Y50178D01*
X833293Y50105D02*
X829061Y50154D01*
X833342Y54337D01*
X833354Y55395D01*
X832308Y56465D01*
X830192Y56489D01*
X829122Y55444D01*
X966204Y175991D02*
X966318Y182338D01*
X969491Y182281D01*
X970530Y181204D01*
X970492Y179089D01*
X969416Y178050D01*
X966242Y178107D01*
X968358Y178069D02*
X970435Y175915D01*
X976896Y182149D02*
X974761Y181129D01*
X972608Y179051D01*
X972570Y176936D01*
X973609Y175859D01*
X975725Y175821D01*
X976801Y176860D01*
X976820Y177918D01*
X975781Y178995D01*
X972608Y179051D01*
X879605Y66560D02*
X879746Y61272D01*
X880832Y60242D01*
X882947Y60299D01*
X883977Y61385D01*
X883835Y66673D01*
X886120Y60384D02*
X888235Y60440D01*
X887178Y60412D01*
X887008Y66758D01*
X885979Y65672D01*
X777452Y204046D02*
X776394Y205104D01*
X774278D01*
X773220Y204046D01*
Y199814D01*
X774278Y198756D01*
X776394D01*
X777452Y199814D01*
X783800Y198756D02*
X779568D01*
X783800Y202988D01*
Y204046D01*
X782742Y205104D01*
X780626D01*
X779568Y204046D01*
X982945Y79586D02*
X981870Y80626D01*
X979754Y80591D01*
X978714Y79516D01*
X978783Y75285D01*
X979859Y74244D01*
X981974Y74279D01*
X983015Y75354D01*
X985148Y74331D02*
X987263Y74366D01*
X986206Y74349D01*
X986101Y80696D01*
X985061Y79620D01*
X821448Y118690D02*
X821502Y113400D01*
X822571Y112353D01*
X824687Y112375D01*
X825734Y113443D01*
X825680Y118733D01*
X832092Y112450D02*
X827860Y112407D01*
X832049Y116682D01*
X832038Y117740D01*
X830969Y118787D01*
X828854Y118765D01*
X827806Y117697D01*
X823794Y69235D02*
X823822Y75583D01*
X826996Y75569D01*
X828050Y74506D01*
X828040Y72390D01*
X826977Y71337D01*
X823803Y71351D01*
X825919Y71342D02*
X828026Y69216D01*
X830142Y69207D02*
X832258Y69197D01*
X831200Y69202D01*
X831228Y75550D01*
X830165Y74496D01*
X929441Y95868D02*
X929419Y102216D01*
X932593Y102227D01*
X933655Y101172D01*
X933662Y99056D01*
X932608Y97995D01*
X929434Y97984D01*
X931550Y97991D02*
X933673Y95882D01*
X935771Y101180D02*
X936825Y102241D01*
X938941Y102248D01*
X940003Y101194D01*
X940006Y100136D01*
X938952Y99074D01*
X937894Y99071D01*
X938952Y99074D01*
X940014Y98020D01*
X940017Y96962D01*
X938963Y95900D01*
X936847Y95893D01*
X935785Y96948D01*
X821480Y174626D02*
Y180974D01*
X824654D01*
X825712Y179916D01*
Y177800D01*
X824654Y176742D01*
X821480D01*
X823596D02*
X825712Y174626D01*
X831002D02*
Y180974D01*
X827828Y177800D01*
X832060D01*
X879849Y177253D02*
X879953Y183601D01*
X883127Y183548D01*
X884167Y182473D01*
X884132Y180357D01*
X883057Y179317D01*
X879883Y179369D01*
X881999Y179334D02*
X884080Y177184D01*
X890531Y183427D02*
X886300Y183496D01*
X886248Y180323D01*
X888381Y181346D01*
X889439Y181328D01*
X890479Y180253D01*
X890444Y178137D01*
X889369Y177097D01*
X887253Y177132D01*
X886213Y178207D01*
M02*
