G04*
G04 #@! TF.GenerationSoftware,Altium Limited,Altium Designer,22.10.1 (41)*
G04*
G04 Layer_Color=8388736*
%FSLAX44Y44*%
%MOMM*%
G71*
G04*
G04 #@! TF.SameCoordinates,1FFB8BF8-2B07-4287-B8AF-9A6C265E6988*
G04*
G04*
G04 #@! TF.FilePolarity,Negative*
G04*
G01*
G75*
%ADD17R,1.3300X0.5600*%
%ADD18R,0.5500X1.0000*%
%ADD19R,1.8062X1.7540*%
%ADD20R,1.3500X0.9500*%
%ADD22R,1.0032X1.1532*%
%ADD23R,1.2032X1.3032*%
G04:AMPARAMS|DCode=24|XSize=0.4532mm|YSize=0.7032mm|CornerRadius=0.1516mm|HoleSize=0mm|Usage=FLASHONLY|Rotation=180.000|XOffset=0mm|YOffset=0mm|HoleType=Round|Shape=RoundedRectangle|*
%AMROUNDEDRECTD24*
21,1,0.4532,0.4000,0,0,180.0*
21,1,0.1500,0.7032,0,0,180.0*
1,1,0.3032,-0.0750,0.2000*
1,1,0.3032,0.0750,0.2000*
1,1,0.3032,0.0750,-0.2000*
1,1,0.3032,-0.0750,-0.2000*
%
%ADD24ROUNDEDRECTD24*%
G04:AMPARAMS|DCode=25|XSize=1.1032mm|YSize=1.8032mm|CornerRadius=0.1511mm|HoleSize=0mm|Usage=FLASHONLY|Rotation=90.000|XOffset=0mm|YOffset=0mm|HoleType=Round|Shape=RoundedRectangle|*
%AMROUNDEDRECTD25*
21,1,1.1032,1.5010,0,0,90.0*
21,1,0.8010,1.8032,0,0,90.0*
1,1,0.3022,0.7505,0.4005*
1,1,0.3022,0.7505,-0.4005*
1,1,0.3022,-0.7505,-0.4005*
1,1,0.3022,-0.7505,0.4005*
%
%ADD25ROUNDEDRECTD25*%
%ADD26C,2.0320*%
%ADD27C,1.7272*%
%ADD28C,0.6400*%
%ADD29C,1.4732*%
D17*
X926400Y45110D02*
D03*
Y54610D02*
D03*
Y64110D02*
D03*
X902400D02*
D03*
Y54610D02*
D03*
Y45110D02*
D03*
D18*
X854810Y146050D02*
D03*
X867310D02*
D03*
D19*
X803910Y195911D02*
D03*
Y172389D02*
D03*
D20*
X958850Y62350D02*
D03*
Y77350D02*
D03*
D22*
X849630Y54063D02*
D03*
X862630D02*
D03*
X849630Y72105D02*
D03*
X862630D02*
D03*
D23*
X941690Y177800D02*
D03*
X955690D02*
D03*
X916320Y99060D02*
D03*
X902320D02*
D03*
X854710Y176530D02*
D03*
X840710D02*
D03*
X902940Y177800D02*
D03*
X916940D02*
D03*
D24*
X844670Y99720D02*
D03*
X849670D02*
D03*
X854670D02*
D03*
X859670D02*
D03*
Y118720D02*
D03*
X854670D02*
D03*
X849670D02*
D03*
X844670D02*
D03*
D25*
X852170Y109220D02*
D03*
D26*
X985520Y213360D02*
D03*
Y24130D02*
D03*
X779780D02*
D03*
D27*
X824230Y26670D02*
D03*
X852170D02*
D03*
X919480Y213360D02*
D03*
X882650Y214630D02*
D03*
D28*
X848170Y109220D02*
D03*
X856170D02*
D03*
D29*
X910590Y115570D02*
D03*
X939800Y77470D02*
D03*
X944880Y156210D02*
D03*
X939800Y45720D02*
D03*
X803910Y146050D02*
D03*
M02*
